<svg width="116" height="30" viewBox="0 0 116 30" fill="none" xmlns="http://www.w3.org/2000/svg">
<path d="M7.67353 14.0158C7.5751 13.9174 1.58213 12.5979 1.58213 12.5979C1.58213 12.5979 1.23291 13.158 1.33369 13.4885C1.38994 13.6736 2.69775 15.1947 4.04307 16.5939C5.10478 17.7002 6.31182 18.8252 6.4876 19.4674C6.75713 20.4564 6.78525 22.0432 6.78525 22.0432L2.87822 24.4291C2.87822 24.4291 3.35635 26.8619 6.45478 26.7658C9.34932 26.6768 9.49932 23.6111 10.4181 23.5947C10.5728 23.5924 10.786 23.5385 11.1681 23.9486C12.1149 24.9658 13.8868 26.9299 14.4798 27.5252C15.272 28.3174 15.8345 29.1096 16.1321 29.0768C16.4298 29.0439 18.9399 26.7986 19.6665 26.1049C20.3931 25.4111 21.054 24.5861 21.054 23.8924C21.054 23.1986 20.0298 22.6713 20.0298 22.6713L14.3813 23.3322L7.67353 14.0158ZM24.286 5.06738C24.3845 5.06738 26.8946 3.81348 26.8946 3.81348C26.8946 3.81348 28.1837 6.42207 26.5313 7.90801C24.879 9.39395 24.5157 8.55254 23.7235 9.42676C23.1188 10.0947 23.4259 11.4752 23.4259 11.4752L28.336 16.1955C28.336 16.1955 28.6103 16.6947 28.4134 17.058C28.2728 17.3158 26.6204 19.165 25.3407 20.4939C24.7642 21.0916 23.9603 21.2932 23.5243 21.1877C22.4345 20.9229 22.2704 20.065 22.0712 18.5463C21.872 17.0275 20.5642 17.051 20.0884 17.126C19.0853 17.2854 18.4313 17.8713 18.4313 17.8713C18.4313 17.8713 12.5251 10.7533 12.5907 10.5541C12.6563 10.3549 12.8884 8.86894 12.1946 8.24316C11.5009 7.61504 10.1157 7.29629 9.58603 6.93301C9.05869 6.56973 8.98838 5.87832 9.08447 5.20801C9.18057 4.5377 13.4509 4.54473 13.4509 4.54473C13.4509 4.54473 20.8149 8.60645 20.8501 8.44238C20.8829 8.26895 24.286 5.06738 24.286 5.06738Z" fill="#F9F7F7"/>
<path d="M20.6531 5.85713C20.8313 5.20557 20.6274 3.60479 21.8719 2.54541C23.1164 1.48604 25.0524 1.61729 26.2172 2.73057C27.382 3.84385 27.5695 5.93682 26.1914 7.31494C24.8133 8.69307 24.1781 7.92432 23.4094 8.66729C22.6406 9.41025 22.7742 10.0196 23.25 10.4696C23.7281 10.9196 28.4719 15.8767 28.3383 16.1931C28.2047 16.5095 24.9727 20.1681 24.443 20.4329C23.9133 20.6978 22.9852 20.672 22.8 19.7978C22.6149 18.9235 22.9336 17.1751 21.607 16.7228C20.2828 16.2728 19.6992 16.6431 18.4008 18.0212C17.1024 19.3993 16.5188 20.9087 17.5781 21.6774C18.6375 22.4462 19.9641 22.1274 20.4938 23.0298C21.0235 23.9321 20.2289 24.7524 18.825 26.0509C17.4211 27.3493 16.3336 28.4087 16.1485 28.2774C15.9633 28.1438 11.9344 23.8782 11.5383 23.4282C11.1399 22.9782 10.3711 22.5798 9.63048 23.2688C8.88752 23.9579 8.75627 26.2103 5.6297 26.2103C2.50314 26.2103 2.12814 22.8188 3.24142 21.4149C4.3547 20.011 6.81798 19.8774 6.87189 18.9235C6.89533 18.4853 5.54298 17.304 4.32892 16.036C2.90158 14.5431 1.57501 12.961 1.51876 12.7759C1.4133 12.4313 4.48595 9.41026 5.06955 8.98604C5.65314 8.56182 6.31408 8.82666 6.63283 9.17119C6.95158 9.51572 7.03126 10.5751 7.29611 11.1845C7.56095 11.7938 8.80548 14.4446 11.8008 11.4235C14.768 8.42822 11.9602 7.12979 11.0063 6.86494C10.0524 6.6001 9.36564 6.51338 9.09845 5.54072C8.88752 4.77197 10.0524 3.87197 11.2711 2.70479C12.4899 1.5376 13.2047 0.928223 13.5235 0.928223C13.8422 0.928223 18.1078 5.5126 18.6656 6.04229C19.2235 6.57197 19.5656 6.70557 19.9641 6.59775C20.3602 6.49463 20.5735 6.1501 20.6531 5.85713Z" fill="url(#paint0_radial_61_63)"/>
<path d="M50.62 23.1C50.4333 23.1 50.3 23.0667 50.22 23C50.14 22.9333 50.1 22.8 50.1 22.6V18.02H47.78C47.3933 19.3933 46.7733 20.44 45.92 21.16C45.08 21.8933 43.92 22.26 42.44 22.26C41.36 22.26 40.4467 22.06 39.7 21.66C38.9533 21.26 38.3467 20.68 37.88 19.92C37.4267 19.16 37.0933 18.2333 36.88 17.14C36.68 16.0333 36.58 14.78 36.58 13.38C36.58 11.98 36.68 10.7333 36.88 9.64C37.0933 8.53333 37.4267 7.6 37.88 6.84C38.3467 6.08 38.9533 5.5 39.7 5.1C40.4467 4.7 41.36 4.5 42.44 4.5C43.8 4.5 44.8867 4.80667 45.7 5.42C46.5267 6.03333 47.1533 6.92667 47.58 8.1H50.1V5C50.1 4.8 50.14 4.66667 50.22 4.6C50.3 4.53333 50.4333 4.5 50.62 4.5H53.42C53.6067 4.5 53.74 4.53333 53.82 4.6C53.9 4.66667 53.94 4.8 53.94 5V22.6C53.94 22.8 53.9 22.9333 53.82 23C53.74 23.0667 53.6067 23.1 53.42 23.1H50.62ZM44.56 13.38C44.56 12.1533 44.4867 11.1733 44.34 10.44C44.2067 9.70667 44.0333 9.14667 43.82 8.76C43.6067 8.36 43.3733 8.1 43.12 7.98C42.88 7.86 42.6533 7.8 42.44 7.8C42.2267 7.8 41.9933 7.86 41.74 7.98C41.5 8.1 41.2733 8.36 41.06 8.76C40.8467 9.14667 40.6667 9.70667 40.52 10.44C40.3867 11.1733 40.32 12.1533 40.32 13.38C40.32 14.6067 40.3867 15.5867 40.52 16.32C40.6667 17.0533 40.8467 17.62 41.06 18.02C41.2733 18.4067 41.5 18.66 41.74 18.78C41.9933 18.9 42.2267 18.96 42.44 18.96C42.6533 18.96 42.88 18.9 43.12 18.78C43.3733 18.66 43.6067 18.4067 43.82 18.02C44.0333 17.62 44.2067 17.0533 44.34 16.32C44.4867 15.5867 44.56 14.6067 44.56 13.38ZM48.3 13.38C48.3 13.6067 48.2933 13.8333 48.28 14.06C48.28 14.2733 48.2733 14.4867 48.26 14.7H50.1V11.42H48.22C48.2467 11.7267 48.2667 12.0467 48.28 12.38C48.2933 12.7 48.3 13.0333 48.3 13.38ZM60.58 20.1C60.58 19.5 60.7 18.9533 60.94 18.46C61.18 17.9667 61.56 17.54 62.08 17.18C62.6 16.82 63.2667 16.5467 64.08 16.36C64.8933 16.16 65.8733 16.06 67.02 16.06C68.1667 16.06 69.1467 16.16 69.96 16.36C70.7733 16.5467 71.44 16.82 71.96 17.18C72.48 17.54 72.86 17.9667 73.1 18.46C73.34 18.9533 73.46 19.5 73.46 20.1C73.46 20.7 73.34 21.2467 73.1 21.74C72.86 22.2333 72.48 22.66 71.96 23.02C71.44 23.38 70.7733 23.6533 69.96 23.84C69.1467 24.04 68.1667 24.14 67.02 24.14C65.8733 24.14 64.8933 24.04 64.08 23.84C63.2667 23.6533 62.6 23.38 62.08 23.02C61.56 22.66 61.18 22.2333 60.94 21.74C60.7 21.2467 60.58 20.7 60.58 20.1ZM66.86 15.38C66.6733 15.38 66.54 15.3467 66.46 15.28C66.38 15.2133 66.34 15.08 66.34 14.88V5C66.34 4.8 66.38 4.66667 66.46 4.6C66.54 4.53333 66.6733 4.5 66.86 4.5H69.36C69.5467 4.5 69.68 4.53333 69.76 4.6C69.84 4.66667 69.88 4.8 69.88 5V8.42H70.76V5C70.76 4.8 70.8 4.66667 70.88 4.6C70.96 4.53333 71.0933 4.5 71.28 4.5H73.78C73.9667 4.5 74.1 4.53333 74.18 4.6C74.26 4.66667 74.3 4.8 74.3 5V15.08C74.3 15.28 74.26 15.4133 74.18 15.48C74.1 15.5467 73.9667 15.58 73.78 15.58H71.28C71.0933 15.58 70.96 15.5467 70.88 15.48C70.8 15.4133 70.76 15.28 70.76 15.08V11.46H69.88V14.88C69.88 15.08 69.84 15.2133 69.76 15.28C69.68 15.3467 69.5467 15.38 69.36 15.38H66.86ZM56.66 12.26C56.66 11.7933 56.7267 11.36 56.86 10.96C57.0067 10.5467 57.2467 10.1933 57.58 9.9C57.9267 9.59333 58.38 9.35333 58.94 9.18C59.5133 9.00667 60.22 8.92 61.06 8.92C61.9 8.92 62.6 9.00667 63.16 9.18C63.7333 9.35333 64.1867 9.59333 64.52 9.9C64.8667 10.1933 65.1067 10.5467 65.24 10.96C65.3867 11.36 65.46 11.7933 65.46 12.26C65.46 12.7267 65.3867 13.1667 65.24 13.58C65.1067 13.98 64.8667 14.3333 64.52 14.64C64.1867 14.9333 63.7333 15.1667 63.16 15.34C62.6 15.5133 61.9 15.6 61.06 15.6C60.22 15.6 59.5133 15.5133 58.94 15.34C58.38 15.1667 57.9267 14.9333 57.58 14.64C57.2467 14.3333 57.0067 13.98 56.86 13.58C56.7267 13.1667 56.66 12.7267 56.66 12.26ZM56.32 5.74C56.32 5.54 56.36 5.40667 56.44 5.34C56.52 5.27333 56.6533 5.24 56.84 5.24H59.18V4.52C59.18 4.32 59.22 4.18667 59.3 4.12C59.38 4.05333 59.5133 4.02 59.7 4.02H62.5C62.6867 4.02 62.82 4.05333 62.9 4.12C62.98 4.18667 63.02 4.32 63.02 4.52V5.24H65.32C65.5067 5.24 65.64 5.27333 65.72 5.34C65.8 5.40667 65.84 5.54 65.84 5.74V7.68C65.84 7.88 65.8 8.01333 65.72 8.08C65.64 8.14667 65.5067 8.18 65.32 8.18H56.84C56.6533 8.18 56.52 8.14667 56.44 8.08C56.36 8.01333 56.32 7.88 56.32 7.68V5.74ZM69.68 20.1C69.68 19.8867 69.6067 19.7133 69.46 19.58C69.3133 19.4467 69.1133 19.34 68.86 19.26C68.62 19.18 68.34 19.1267 68.02 19.1C67.7 19.06 67.3667 19.04 67.02 19.04C66.6733 19.04 66.34 19.06 66.02 19.1C65.7 19.1267 65.4133 19.18 65.16 19.26C64.92 19.34 64.7267 19.4467 64.58 19.58C64.4333 19.7133 64.36 19.8867 64.36 20.1C64.36 20.3133 64.4333 20.4867 64.58 20.62C64.7267 20.7533 64.92 20.86 65.16 20.94C65.4133 21.02 65.7 21.0733 66.02 21.1C66.34 21.14 66.6733 21.16 67.02 21.16C67.3667 21.16 67.7 21.14 68.02 21.1C68.34 21.0733 68.62 21.02 68.86 20.94C69.1133 20.86 69.3133 20.7533 69.46 20.62C69.6067 20.4867 69.68 20.3133 69.68 20.1ZM59.82 12.26C59.82 12.7933 60.2333 13.06 61.06 13.06C61.8867 13.06 62.3 12.7933 62.3 12.26C62.3 11.7267 61.8867 11.46 61.06 11.46C60.2333 11.46 59.82 11.7267 59.82 12.26ZM77.9 5C77.9 4.8 77.94 4.66667 78.02 4.6C78.1 4.53333 78.2333 4.5 78.42 4.5H92.56C92.7467 4.5 92.88 4.53333 92.96 4.6C93.04 4.66667 93.08 4.8 93.08 5V7.34C93.08 7.54 93.04 7.67333 92.96 7.74C92.88 7.80667 92.7467 7.84 92.56 7.84H87.42V8.92C87.42 9.48 87.5333 10.0133 87.76 10.52C87.9867 11.0133 88.3267 11.46 88.78 11.86C89.2333 12.2467 89.7933 12.5733 90.46 12.84C91.14 13.1067 91.92 13.2867 92.8 13.38C92.9867 13.4067 93.1067 13.4533 93.16 13.52C93.2133 13.5867 93.24 13.7467 93.24 14V16.34C93.24 16.4867 93.2133 16.6 93.16 16.68C93.12 16.76 93.06 16.82 92.98 16.86C92.9133 16.9 92.84 16.92 92.76 16.92C92.6933 16.92 92.6333 16.92 92.58 16.92C91.74 16.84 90.9467 16.7 90.2 16.5C89.4533 16.2867 88.7733 16.04 88.16 15.76C87.56 15.4667 87.0333 15.1467 86.58 14.8C86.1267 14.44 85.7667 14.08 85.5 13.72C85.2333 14.08 84.8733 14.44 84.42 14.8C83.9667 15.1467 83.4333 15.4667 82.82 15.76C82.2067 16.04 81.5267 16.2867 80.78 16.5C80.0467 16.7 79.26 16.84 78.42 16.92C78.3667 16.92 78.3 16.92 78.22 16.92C78.1533 16.92 78.08 16.9 78 16.86C77.9333 16.82 77.8733 16.76 77.82 16.68C77.78 16.6 77.76 16.4867 77.76 16.34V14C77.76 13.7467 77.7867 13.5867 77.84 13.52C77.8933 13.4533 78.0133 13.4067 78.2 13.38C79.08 13.2867 79.8533 13.1067 80.52 12.84C81.2 12.5733 81.7667 12.2467 82.22 11.86C82.6733 11.46 83.0133 11.0133 83.24 10.52C83.4667 10.0133 83.58 9.48 83.58 8.92V7.84H78.42C78.2333 7.84 78.1 7.80667 78.02 7.74C77.94 7.67333 77.9 7.54 77.9 7.34V5ZM76.54 20.06C76.54 19.86 76.58 19.7267 76.66 19.66C76.74 19.5933 76.8733 19.56 77.06 19.56H83.58V17C83.58 16.8 83.62 16.6667 83.7 16.6C83.78 16.5333 83.9133 16.5 84.1 16.5H86.9C87.0867 16.5 87.22 16.5333 87.3 16.6C87.38 16.6667 87.42 16.8 87.42 17V19.56H93.94C94.1267 19.56 94.26 19.5933 94.34 19.66C94.42 19.7267 94.46 19.86 94.46 20.06V22.4C94.46 22.6 94.42 22.7333 94.34 22.8C94.26 22.8667 94.1267 22.9 93.94 22.9H77.06C76.8733 22.9 76.74 22.8667 76.66 22.8C76.58 22.7333 76.54 22.6 76.54 22.4V20.06ZM96.7039 16.2C96.7039 16 96.7439 15.8667 96.8239 15.8C96.9039 15.7333 97.0372 15.7 97.2239 15.7H111.964C112.151 15.7 112.284 15.7333 112.364 15.8C112.444 15.8667 112.484 16 112.484 16.2V23C112.484 23.2 112.444 23.3333 112.364 23.4C112.284 23.4667 112.151 23.5 111.964 23.5H109.164C108.977 23.5 108.844 23.4667 108.764 23.4C108.684 23.3333 108.644 23.2 108.644 23V19.02H97.2239C97.0372 19.02 96.9039 18.9867 96.8239 18.92C96.7439 18.8533 96.7039 18.72 96.7039 18.52V16.2ZM102.184 8.68C102.184 8.36 102.117 8.14 101.984 8.02C101.864 7.9 101.684 7.84 101.444 7.84H96.3039C96.1172 7.84 95.9839 7.80667 95.9039 7.74C95.8239 7.67333 95.7839 7.54 95.7839 7.34V5C95.7839 4.8 95.8239 4.66667 95.9039 4.6C95.9839 4.53333 96.1172 4.5 96.3039 4.5H103.864C104.584 4.5 105.124 4.68667 105.484 5.06C105.844 5.43333 106.024 6.04 106.024 6.88C106.024 7.26667 106.011 7.72667 105.984 8.26C105.971 8.79333 105.937 9.37333 105.884 10C105.844 10.6133 105.784 11.2533 105.704 11.92C105.624 12.5867 105.531 13.2467 105.424 13.9C105.397 14.1 105.351 14.24 105.284 14.32C105.217 14.4 105.091 14.4267 104.904 14.4L102.164 14.1C101.977 14.0733 101.831 14.0133 101.724 13.92C101.631 13.8267 101.611 13.6667 101.664 13.44C101.757 12.9733 101.837 12.5 101.904 12.02C101.971 11.54 102.024 11.0867 102.064 10.66C102.104 10.22 102.131 9.82667 102.144 9.48C102.171 9.13333 102.184 8.86667 102.184 8.68ZM114.844 10.44C114.844 10.64 114.804 10.7733 114.724 10.84C114.644 10.9067 114.511 10.94 114.324 10.94H112.484V14.28C112.484 14.48 112.444 14.6133 112.364 14.68C112.284 14.7467 112.151 14.78 111.964 14.78H109.164C108.977 14.78 108.844 14.7467 108.764 14.68C108.684 14.6133 108.644 14.48 108.644 14.28V5C108.644 4.8 108.684 4.66667 108.764 4.6C108.844 4.53333 108.977 4.5 109.164 4.5H111.964C112.151 4.5 112.284 4.53333 112.364 4.6C112.444 4.66667 112.484 4.8 112.484 5V7.62H114.324C114.511 7.62 114.644 7.65333 114.724 7.72C114.804 7.78667 114.844 7.92 114.844 8.12V10.44Z" fill="#112D4E"/>
<defs>
<radialGradient id="paint0_radial_61_63" cx="0" cy="0" r="1" gradientUnits="userSpaceOnUse" gradientTransform="translate(14.5716 -6.63272) scale(27.9434 27.9434)">
<stop offset="0.508" stop-color="#9ECBFF"/>
<stop offset="0.572" stop-color="#95C1F3"/>
<stop offset="0.643" stop-color="#79ABE4"/>
<stop offset="0.717" stop-color="#6C9DD6"/>
<stop offset="0.793" stop-color="#5B90CF"/>
<stop offset="0.871" stop-color="#437DC2"/>
<stop offset="0.949" stop-color="#4578B6"/>
<stop offset="0.981" stop-color="#3F72AF"/>
</radialGradient>
</defs>
</svg>
